<?xml version="1.0" encoding="utf-8"?>
<svg xmlns="http://www.w3.org/2000/svg" viewBox="0 0 742 1031">
  <path fill="#55aad4" d="M 331.4 0.9 C 316.6 4.6 313.9 24.5 327.1 31.9 C 330.6 33.9 399.6 34.3 402.7 40.4 C 404.4 43.7 418.17 76.247 418.17 77.547 C 418.17 78.047 239.047 77.859 233.5 82 C 170 82 170 147.5 170 147.5 L 170 271 L 449 271 C 437.561 271 457.486 312.2 487.2 313.6 C 489.926 313.728 491.9 317.5 490.6 319.5 C 486.8 325.1 485.7 329.5 486.2 337.5 C 486.8 346.1 489.6 351.8 496.1 357.4 C 507.3 366.9 524.9 366 535.6 355.3 C 544.8 346.1 546.5 330.5 539.4 319.7 C 538 317.5 537.1 315.5 537.5 315.2 C 538.4 314.2 638 314.2 638 315.1 C 638 315.5 634.8 319.5 633.3 322.3 C 629.7 329.2 629.5 340.2 632.8 347 C 637.7 357 646.3 363 657.1 363.8 C 669.4 364.7 680.6 358.3 685.6 347.5 C 689.7 338.8 688.5 325.7 683 317.9 L 680.9 315 C 680.9 315 703.4 312 707.2 304.6 C 709.8 299.6 709.2 293.4 705.7 288.1 C 700.7 280.5 495.799 279.419 491.3 279 C 477.858 277.749 467.395 258.586 489.5 253.4 C 491.957 252.823 503 250.8 551.8 246.8 C 680.6 236.3 710.336 197.62 713.4 179 C 716.464 160.38 756.866 74.768 728.6 77.5 L 452.9 76.5 L 447.9 63 C 445.2 55.6 430.4 18.5 424.7 12.8 C 420 8.1 412.7 3.7 406.5 1.8 C 402.7 0.6 335.6 -0.1 331.4 0.9 Z M 390 107 L 390 148 L 565 148 L 565 201 L 390 201 L 390 242 L 303 174.5 Z"/>
  <path fill="#000055" d="M 170 82 L 80 82 A 74 74 0 0 0 6 156 L 6 913 A 74 74 0 0 0 80 987 L 170 987 Z" />
  <g fill="#055">
    <path d="M 553 405.1 C 551.6 405.6 383 573.5 383 573.5 L 354.3 544.8 C 329 519.7 325 516 321.1 515 C 316.5 513.8 311 514.3 307.3 516.3 C 303.1 518.6 277.8 544.1 276.4 547.5 C 274.6 551.8 274.6 558.1 276.4 562.3 C 277.2 564.1 370.5 657.7 374.7 659.2 C 380.8 661.4 385.4 661.4 391.5 659.4 C 395.8 657.9 597.4 455.2 598.8 452.8 C 601.4 447.9 601.7 440.7 599.5 435.3 C 597.7 431 575.3 408.9 569.8 406 C 565.8 403.8 557.4 403.4 553 405.1 Z"/>
    <path d="M 170 444 L 170 638 L 313 638 L 283.8 609.2 C 259.5 584.9 254.7 579.6 252.4 574.7 C 246.6 561.9 246.9 546.9 253.1 534.1 C 255.7 528.7 259.2 524.6 271.9 511.9 C 288 495.7 293.4 491.9 303.9 489 C 315.1 486 331.5 488.7 341 494.9 C 343.4 496.6 353.9 506.4 364.2 516.7 L 383 535.5 L 428.8 489.7 L 475 444 Z"/>
  </g>
  <path fill="#d4aa2a" d="M597.6 732.1c-5.2 1.3-43 21-41.9 21.9.4.4 29.6 15.2 64.8 32.9 35.2 17.8 65.1 33.4 66.5 34.7l2.5 2.4.1 21.3c.1 11.6 0 22.4-.3 23.9-.4 2.3-2.5 3.7-16.3 10.7-8.7 4.5-16.1 8.1-16.4 8.1s-.6-11.1-.8-24.6l-.3-24.6-3.2-2.7c-4-3.3-128.4-66.1-131-66.1-1 0-2.3.4-2.8.9-.6.6-10.9 5.9-23 12-12.1 6-23.5 12.1-25.4 13.5l-3.5 2.6H 170 V 987 H 446l37.7 19c34.4 17.4 38.1 19 42.8 19 4.8 0 9.7-2.3 66.9-31.1 33.9-17.1 63.1-32.2 64.9-33.6 6.5-4.9 6.2-.5 6.2-84.3 0-82.7.2-79.8-5.6-85.1-4-3.7-126.1-64.8-130.4-65.3-1.9-.3-5.2 0-7.4.5zM490.8 846c18.1 13.8 38.8 29.6 57 43.7 4 3.1 7.1 6.1 6.9 6.7-.3 1-22.4 18.3-57.2 44.8-8.8 6.7-18.7 14.4-22 17s-6.3 4.8-6.7 4.8c-.5 0-.8-8.9-.8-19.9v-19.8l-8.7-.7c-4.9-.3-43.4-.6-85.7-.6-42.2.1-77 0-77.2-.2-.3-.3-.6-36.2-.4-49.1V870h172v-20.1c0-17.7.2-20 1.5-19.5.9.3 10.5 7.3 21.3 15.6z"/>
</svg>